<?xml version="1.0" encoding="utf-8"?>
<!-- Generator: Adobe Illustrator 23.0.3, SVG Export Plug-In . SVG Version: 6.00 Build 0)  -->
<svg version="1.1" id="Layer_1" xmlns="http://www.w3.org/2000/svg" xmlns:xlink="http://www.w3.org/1999/xlink" x="0px" y="0px"
	 viewBox="0 0 64 64" style="enable-background:new 0 0 64 64;" xml:space="preserve">
<g>
	<path d="M-151-65.26l32-32l-7.48-7.47L-151-80.21l-24.53-24.53l-7.47,7.47L-151-65.26z M-183-97.26"/>
</g>
<polygon points="-292,-83.12 -260,-51.12 -228,-83.12 -231.45,-86.57 -259.7,-58.33 -288.25,-86.88 "/>
<polygon points="-209,-41.3 -177,-9.29 -145,-41.3 -146.41,-42.71 -177.3,-11.82 -207.89,-42.41 "/>
<g>
	<path d="M-52-110.21v-5.07h-64v5.07H-52z M-52-114.01"/>
	<path d="M-52-94.47v-5.07h-64v5.07H-52z M-52-98.27"/>
	<path d="M-52-78.72v-5.07h-64v5.07H-52z M-52-82.52"/>
</g>
<g>
	<path d="M286,19V8.33h-64V19H286z M286,11"/>
	<path d="M286,61.67V51h-64v10.66H286z M286,53.67"/>
	<path d="M286,40.33V29.67h-64v10.66H286z M286,32.34"/>
</g>
<rect y="19.03" width="64" height="1.52"/>
<rect y="31.24" width="64" height="1.52"/>
<rect y="43.45" width="64" height="1.52"/>
<rect x="-240" y="-112" width="45.25" height="1.8"/>
<rect x="-219" y="-90" transform="matrix(-1.836970e-16 1 -1 -1.836970e-16 -285.475 107.275)" width="45.25" height="1.8"/>
<polygon points="337.73,64.36 307,33.64 308.28,32.37 339,63.09 369.72,32.37 371,33.64 340.27,64.36 339,65.63 "/>
<polygon points="-173.44,28.28 -202,-0.28 -198.56,-3.72 -170,24.84 -141.44,-3.72 -138,-0.28 -166.56,28.28 -170,31.72 "/>
<text transform="matrix(1 0 0 1 -137.915 110.5742)" style="font-family:'SegoeUI'; font-size:12px;">sagor</text>
</svg>
