<?xml version="1.0" encoding="utf-8"?>
<!-- Generator: Adobe Illustrator 23.0.3, SVG Export Plug-In . SVG Version: 6.00 Build 0)  -->
<svg version="1.1" id="Layer_1" xmlns="http://www.w3.org/2000/svg" xmlns:xlink="http://www.w3.org/1999/xlink" x="0px" y="0px"
	 viewBox="0 0 64 64" style="enable-background:new 0 0 64 64;" xml:space="preserve">
<g>
	<path d="M-151-65.26l32-32l-7.48-7.47L-151-80.21l-24.53-24.53l-7.47,7.47L-151-65.26z M-183-97.26"/>
</g>
<polygon points="-292,-83.12 -260,-51.12 -228,-83.12 -231.45,-86.57 -259.7,-58.33 -288.25,-86.88 "/>
<polygon points="-209,-41.3 -177,-9.29 -145,-41.3 -146.41,-42.71 -177.3,-11.82 -207.89,-42.41 "/>
<g>
	<path d="M144.16-75.74v-4.13H92v4.13H144.16z M144.16-78.84"/>
	<path d="M144.16-62.91v-4.13H92v4.13H144.16z M144.16-66.01"/>
	<path d="M144.16-50.08v-4.13H92v4.13H144.16z M144.16-53.18"/>
</g>
<g>
	<path d="M-42-240v-10.66h-64V-240H-42z M-42-248"/>
	<path d="M-42-197.33V-208h-64v10.66H-42z M-42-205.33"/>
	<path d="M-42-218.67v-10.66h-64v10.66H-42z M-42-226.66"/>
</g>
<g>
	<rect x="151.2" y="-79.87" width="52.08" height="1.23"/>
	<rect x="151.2" y="-69.94" width="52.08" height="1.23"/>
	<rect x="151.2" y="-60.01" width="52.08" height="1.23"/>
</g>
<rect x="-240" y="-112" width="45.25" height="1.8"/>
<rect x="-219" y="-90" transform="matrix(-1.836970e-16 1 -1 -1.836970e-16 -285.475 107.275)" width="45.25" height="1.8"/>
<polygon points="47.36,33.27 16.64,64 15.37,62.72 46.09,32 15.37,1.28 16.64,0 47.36,30.73 48.63,32 "/>
<polygon points="-87.56,4.72 -59,33.28 -62.44,36.72 -91,8.16 -119.56,36.72 -123,33.28 -94.44,4.72 -91,1.28 "/>
</svg>
